<?xml version="1.0" encoding="UTF-8" standalone="no"?>
<!DOCTYPE svg PUBLIC "-//W3C//DTD SVG 1.1//EN" "http://www.w3.org/TR/2001/REC-SVG-20010904/DTD/svg11.dtd">
<svg width="5cm" height="3.75cm" viewBox="0 0 189 142" overflow="hidden" version="1.1" xmlns="http://www.w3.org/2000/svg" xmlns:xlink="http://www.w3.org/1999/xlink">
<!--user_1  (Utilisateur) -->
<g fill-rule="evenodd" stroke-linejoin="round">
<path d="M31.485,102.1326 L31.512 102.2716 C31.7293,103.3915 33.0676,103.7568 34.2902,103.5188 C37.352,102.9226 37.1345,97.3841 36.9457,92.0917 C36.7067,85.6089 35.0688,72.4771 34.719,68.3783 C34.5709,66.5999 34.892,64.4812 36.2317,64.2026 C36.6441,64.1223 36.8489,64.2607 37.1396,64.562 C36.8186,64.8395 36.5976,65.0799 36.7111,65.6647 C36.7948,66.0961 37.219,66.532 37.8211,66.4148 C38.4403,66.2942 38.8378,65.9487 38.7575,64.8906 L38.7308 64.7529 C38.5135,63.6331 37.1738,63.2679 35.9525,63.5058 C32.8725,64.1055 33.1116,69.6575 33.2993,74.9514 C33.5308,81.5773 35.1044,94.5596 35.419,98.6666 C35.5715,100.4605 35.3494,102.5436 34.011,102.8219 C33.5987,102.9022 33.3923,102.7628 33.1031,102.4626 C33.4229,102.1853 33.6452,101.9447 33.5314,101.3585 C33.448,100.9284 33.0235,100.4912 32.4214,100.6085 C31.8022,100.729 31.4049,101.0758 31.485,102.1326z M32.4818,64.1993" fill="rgb(220,220,220)"/>
</g>
<g fill-rule="evenodd" stroke-linejoin="round">
<path d="M41.1502,63.864 L41.2856 64.5616 L44.2374 63.9869 L44.8114 66.9452 L45.5078 66.8096 L44.9338 63.8513 L47.8869 63.2762 L47.7515 62.5786 L44.7984 63.1536 L44.2246 60.1966 L43.5283 60.3322 L44.102 63.2892 L41.1502 63.864z M49.493,66.1207" fill="rgb(220,220,220)"/>
</g>
<g fill-rule="evenodd" stroke-linejoin="round">
<path d="M55.0213,63.0859 C55.552,63.6439 56.9391,64.8204 58.6552,64.4863 C60.8765,64.0537 61.2073,62.2297 60.932,60.8109 C60.6544,59.3803 59.1025,58.5094 57.7699,58.7689 C56.0787,59.0982 55.2939,60.8364 55.1643,61.1978 C54.5359,60.5213 53.2742,59.6688 51.6183,59.9912 C49.4322,60.4169 48.9154,62.1152 49.1908,63.534 C49.4684,64.9646 51.1274,65.9398 52.46,65.6804 C54.1394,65.3533 54.8704,63.4637 55.0082,63.0885z M55.6035,61.662 C55.9016,60.7548 56.5696,59.5769 57.9257,59.3128 C58.791,59.1443 60.0162,59.8161 60.2262,60.898 C60.462,62.1136 60.0191,63.3593 58.8554,63.5859 C57.6184,63.8267 56.3753,62.6222 55.6035,61.662z M54.5798,62.5472 C54.2815,63.4531 53.6603,64.8724 52.3042,65.1364 C51.4402,65.3046 50.1654,64.5173 49.9555,63.4355 C49.7221,62.233 50.3794,61.1184 51.3873,60.9221 C52.5876,60.6884 53.8406,61.7549 54.5798,62.5472z M61.7426,63.7354" fill="rgb(220,220,220)"/>
</g>
<g fill-rule="evenodd" stroke-linejoin="round">
<path d="M41.7331,94.8651 C42.8733,94.6431 43.5434,96.3606 43.9236,98.3197 C44.304,100.2801 44.3246,102.1228 43.1845,102.3448 C42.0443,102.5668 41.3744,100.8506 40.994,98.8902 C40.6139,96.9311 40.593,95.0871 41.7331,94.8651z M41.6517,94.4455 C39.6712,94.8311 39.3035,96.7236 39.7701,99.1285 C40.2368,101.5334 41.2856,103.1514 43.2662,102.7657 C45.2467,102.3801 45.6142,100.4863 45.1475,98.0814 C44.6809,95.6765 43.6322,94.0598 41.6517,94.4455z M46.4164,102.0026" fill="rgb(220,220,220)"/>
</g>
<g fill-rule="evenodd" stroke-linejoin="round">
<path d="M74.8915,78.2156 C74.4296,79.1465 73.7244,80.4828 72.435,80.7339 C71.2308,80.9684 70.6687,80.0041 70.4046,78.6429 C70.3878,78.5564 70.3746,78.4882 70.3682,78.3643 C73.1447,77.2153 74.2662,76.2811 74.872,75.4473 C75.3571,74.7269 75.3684,74.1341 75.2747,73.6515 C75.0976,72.7388 74.2165,72.0694 72.8067,72.3439 C71.2582,72.6455 70.1385,73.6868 69.4193,75.0421 C68.7258,76.3407 68.4995,77.9402 68.7804,79.3879 C69.2489,81.802 70.8959,81.91 71.8933,81.7157 C73.1487,81.4713 74.5561,80.6243 75.3551,78.4832 L74.8915 78.2156z M70.2885,77.7715 C70.1769,75.6281 71.065,73.3091 72.4421,73.0409 C73.0442,72.9237 73.5199,73.2611 73.6367,73.863 C73.871,75.0707 73.0754,76.5851 70.2885,77.7715z M75.7396,80.7518" fill="rgb(220,220,220)"/>
</g>
<g fill-rule="evenodd" stroke-linejoin="round">
<path d="M82.5272,68.2098 L82.3918 67.5122 L75.7905 68.7976 L75.9259 69.4952 L82.5272 68.2098z M84.1333,71.0543" fill="rgb(220,220,220)"/>
</g>
<g fill-rule="evenodd" stroke-linejoin="round">
<path d="M88.4717,64.5687 L88.5153 64.0866 L86.9903 64.3836 L87.1212 62.8734 L86.9609 62.8175 L85.9755 63.9702 L85.934 64.5893 L84.9614 64.7787 L84.9177 65.2608 L85.9152 65.0665 L85.6881 69.6791 C85.6416,70.3986 85.8813,70.8636 86.4808,70.7468 C87.4416,70.5597 88.056,69.6168 88.3601,68.6213 L88.0573 68.468 C87.8722,68.9912 87.4158,69.9156 87.044,69.988 C86.7914,70.0372 86.738,69.7618 86.7514,69.4462 L86.9702 64.8611 L88.4717 64.5687z M88.4791,70.208" fill="rgb(220,220,220)"/>
</g>
<g fill-rule="evenodd" stroke-linejoin="round">
<path d="M93.253,63.0403 L92.9753 63.044 C92.8731,63.6028 92.6952,63.7082 92.3104,63.7831 L89.8521 64.2618 C89.9094,63.7308 90.3436,62.9373 91.1114,62.1196 C91.9021,61.2661 92.529,60.695 92.3201,59.6184 C92.0605,58.2809 91.0874,57.9913 90.0795,58.1876 C88.7639,58.4438 88.2369,59.3751 88.3338,59.8748 C88.3972,60.2013 88.7924,60.2849 88.9547,60.2533 C89.1275,60.2196 89.1757,60.1109 89.1832,59.9394 C89.2094,59.2552 89.4825,58.6536 90.0768,58.5379 C90.8164,58.3938 91.1482,58.977 91.2846,59.6798 C91.4844,60.7092 91.0779,61.3871 90.3866,62.2906 C89.4056,63.5499 89.1202,64.2846 89.0825,65.0703 L89.1966 65.1474 L93.1721 64.3733 L93.253 63.0403z M93.9287,64.226" fill="rgb(220,220,220)"/>
</g>
<g fill-rule="evenodd" stroke-linejoin="round">
<path d="M107.6962,74.5291 L107.5992 74.0295 C106.3598,74.181 106.2852,74.1601 106.1147,73.2816 L103.944 62.0948 L103.8037 62.016 L101.1854 62.9722 L101.2691 63.4036 L101.9369 63.3443 C102.3947,63.3096 102.5134,63.375 102.6406,64.0306 L103.1889 66.8565 C102.6571,66.692 101.9909,66.6611 101.2002,66.8151 C99.7891,67.0898 98.8263,67.7427 98.2475,68.6243 C97.6583,69.5433 97.4315,70.7687 97.7223,72.2675 C98.2175,74.8193 99.8732,76.2674 102.1443,75.8252 C103.0737,75.6442 103.8012,75.0739 104.5833,74.1336 L104.7472 74.9781 L104.908 75.072 L107.6962 74.5291z M104.2189,72.1647 C104.2927,72.5449 104.3324,72.8407 104.286,73.1545 C104.1155,74.1172 103.4258,74.6094 102.5318,74.7835 C100.9492,75.0917 99.8563,73.6946 99.4715,71.7119 C99.0369,69.4722 99.5449,67.7634 101.299,67.4218 C102.1079,67.2643 102.8346,67.5161 103.282,68.1625 C103.4765,68.4294 103.54,68.6661 103.6306,69.1329 L104.2189 72.1647z M107.9972,74.4704" fill="rgb(220,220,220)"/>
</g>
<g fill-rule="evenodd" stroke-linejoin="round">
<path d="M114.2218,65.1735 L114.2833 64.4825 L112.0986 64.9079 L112.2845 62.7433 L112.0555 62.6627 L110.6441 64.3148 L110.5841 65.2028 L109.1913 65.474 L109.1285 66.1653 L110.5566 65.8872 L110.2322 72.4975 C110.1649,73.5299 110.5088,74.1964 111.3689,74.0289 C112.7446,73.761 113.6246,72.4085 114.0625,70.9827 L113.6272 70.7627 C113.3624,71.5124 112.708,72.8373 112.1753,72.9411 C111.814,73.0114 111.7371,72.6154 111.7571,72.1652 L112.0711 65.5923 L114.2218 65.1735z M114.2608,73.2508" fill="rgb(220,220,220)"/>
</g>
<g fill-rule="evenodd" stroke-linejoin="round">
<path d="M129.7653,67.6733 L129.5715 66.6741 L120.1087 68.5167 L120.3026 69.5159 L129.7653 67.6733z M129.0297,63.8823 L128.8359 62.8831 L119.3731 64.7257 L119.567 65.7249 L129.0297 63.8823z M131.7582,69.8436" fill="rgb(220,220,220)"/>
</g>
<g fill-rule="evenodd" stroke-linejoin="round">
<path d="M141.1289,55.9958 L136.8413 49.8196 C136.7465,49.6951 136.6922,49.5969 136.5704,49.6206 C136.5194,49.6305 136.5059,49.6522 136.3565,49.8065 L134.8602 51.3852 L135.1647 51.6661 C135.4261,51.5431 135.689,51.4211 135.8605,51.3877 C135.8945,51.3811 135.9116,51.3778 135.9149,51.3948 L140.7932 58.4032 L141.2919 58.3061 C141.2919,58.3061 146.0743,40.1696 146.1233,40.1423 C146.1715,39.9356 146.1342,39.9252 146.1174,39.8386 C146.0807,39.6498 145.9393,39.1942 145.7325,39.2345 L145.5781 39.2646 L141.1289 55.9958z M145.9002,40.2388" fill="rgb(220,220,220)"/>
</g>
<g fill="none" stroke="rgb(220,220,220)" stroke-width="1.0627" stroke-linejoin="round">
<path d="M145.797,39.7418 L157.0649 37.5477"/>
</g>
<g fill-rule="evenodd" stroke-linejoin="round">
<path d="M156.983,49.1745 C156.706,50.1415 156.1926,51.171 155.813,51.2449 C155.6075,51.2849 155.5152,51.0892 155.4549,50.7784 C155.4182,50.5896 155.3915,50.3607 155.3836,50.1309 L155.4856 44.405 L156.9831 44.1134 L157.4142 42.6523 C156.9388,42.87 156.2455,43.0772 155.4378,43.2345 L150.5513 44.186 C149.6743,44.3567 148.5535,45.0214 148.103,46.2005 L148.4395 46.4575 C149.0229,45.7886 149.8949,45.4936 150.8073,45.316 C150.6549,48.4933 150.6813,51.297 149.7512,51.6564 C149.3354,51.8095 148.8377,52.1921 148.9649,52.8478 C149.0418,53.2438 149.6191,53.3627 149.877,53.3125 C150.7881,53.1351 151.2049,51.8741 151.3635,51.0389 C151.5649,49.9627 151.7503,47.6908 151.7877,45.1251 L153.9384 44.7063 L153.8291 50.1288 C153.8483,50.5007 153.8778,50.8351 153.9313,51.1105 C154.1017,51.9891 154.4703,52.4181 155.0894,52.2975 C156.3461,52.0528 157.1212,50.9017 157.4424,49.3368 L156.983 49.1745z M159.7069,51.1848" fill="rgb(220,220,220)"/>
</g>
<g fill="none" stroke="rgb(220,220,220)" stroke-width="1.0627" stroke-linejoin="round">
<path d="M135.5843,64.043 L161.2367 59.0479"/>
</g>
<g fill-rule="evenodd" stroke-linejoin="round">
<path d="M155.1812,76.3151 L154.683 76.3236 C154.5008,77.324 154.1799,77.5116 153.4927,77.6455 L149.0879 78.5032 C149.189,77.554 149.9672,76.1315 151.3429,74.666 C152.7607,73.138 153.8838,72.1136 153.5092,70.1834 C153.0443,67.7876 151.2999,67.2686 149.4935,67.6204 C147.1373,68.0792 146.1938,69.7489 146.3676,70.6446 C146.4814,71.2307 147.188,71.3789 147.4799,71.3221 C147.7901,71.2617 147.8772,71.0664 147.8883,70.7594 C147.937,69.5333 148.4235,68.4561 149.4904,68.2483 C150.8151,67.9904 151.412,69.0363 151.656,70.2939 C152.014,72.1389 151.2851,73.3532 150.0451,74.9718 C148.2878,77.2287 147.7756,78.5451 147.7092,79.9529 L147.914 80.0913 L155.0376 78.7041 L155.1812 76.3151z M156.4343,78.4322" fill="rgb(220,220,220)"/>
</g>
<script xmlns=""/></svg>